<?xml version="1.0" standalone="no"?>
<!DOCTYPE svg PUBLIC "-//W3C//DTD SVG 20010904//EN"
 "http://www.w3.org/TR/2001/REC-SVG-20010904/DTD/svg10.dtd">
<svg version="1.0" xmlns="http://www.w3.org/2000/svg"
 width="336.000000pt" height="336.000000pt" viewBox="0 0 336.000000 336.000000"
 preserveAspectRatio="xMidYMid meet">
<metadata>
Created by potrace 1.14, written by Peter Selinger 2001-2017
</metadata>
<g transform="translate(0.000000,336.000000) scale(0.100000,-0.100000)"
fill="#000000" stroke="none">
<path d="M1617 3154 c-1 -1 -31 -5 -67 -8 -197 -21 -425 -80 -507 -132 -13 -8
-23 -12 -23 -9 0 3 -18 -6 -40 -20 -22 -14 -43 -25 -46 -25 -8 0 -136 -84
-166 -108 -113 -93 -290 -272 -269 -272 3 0 1 -4 -5 -8 -6 -4 -32 -38 -57 -77
-26 -38 -50 -74 -54 -80 -15 -18 -92 -199 -117 -275 -28 -86 -52 -178 -62
-235 -29 -178 -32 -213 -29 -390 3 -194 19 -304 62 -430 23 -66 90 -202 119
-242 13 -17 24 -34 24 -36 0 -7 35 -48 80 -97 19 -21 49 -53 66 -71 69 -75
159 -144 244 -185 75 -36 82 -42 70 -65 -7 -12 -27 -21 -60 -25 -28 -4 -53
-10 -56 -15 -7 -12 42 -34 106 -49 30 -7 93 -26 139 -42 46 -16 95 -28 108
-25 13 2 27 -1 31 -8 14 -24 180 -61 358 -80 79 -9 277 -9 374 0 77 6 285 49
330 68 14 5 30 11 37 13 18 3 254 121 284 141 14 10 46 31 70 48 114 77 261
218 337 325 25 36 49 67 52 70 5 5 11 15 57 97 27 50 93 203 87 203 -3 0 2 12
10 28 8 15 26 86 41 157 23 109 27 155 28 290 0 175 -4 222 -28 335 -52 250
-164 479 -328 675 -64 77 -228 235 -244 235 -6 0 -13 3 -15 8 -4 9 -84 72 -91
72 -3 0 -26 14 -50 30 -25 17 -48 30 -51 30 -4 0 -23 11 -44 23 -20 13 -71 36
-112 51 -41 15 -84 31 -95 36 -22 9 -50 18 -87 26 -32 7 -40 9 -63 17 -45 14
-337 40 -348 31z"/>
</g>
</svg>
